<svg width="250" height="60" viewBox="0 0 250 60" fill="none" xmlns="http://www.w3.org/2000/svg">
<path d="M61.1422 47.6994V42.4371C61.1422 40.7795 62.0092 39.6782 63.7303 39.1205L80.0423 34.8847C83.6046 34.029 86.2676 32.4985 88.0113 30.3171C89.7649 28.1469 90.6417 25.2369 90.6417 21.6111V14.0488C90.6417 9.63087 89.4006 6.20835 86.9086 3.78124C84.4165 1.35272 80.8655 0.132812 76.2668 0.132812H63.174C58.5005 0.132812 54.9283 1.35272 52.4363 3.78124C49.9442 6.20835 48.7031 9.63087 48.7031 14.0488V17.6944C48.7031 18.2267 49.1352 18.6588 49.6675 18.6588H61.2919C61.8242 18.6588 62.2548 18.2267 62.2548 17.6944V14.7858C62.2548 13.5659 62.5768 12.6355 63.2178 12.0269C63.8701 11.4071 64.898 11.1078 66.3085 11.1078H73.0363C74.3847 11.1078 75.39 11.4071 76.031 12.0269C76.6721 12.6369 77.0039 13.5673 77.0039 14.7858V20.9687C77.0039 22.6263 76.1694 23.7276 74.5118 24.2839L58.1998 28.5197C54.6276 29.3866 51.9746 30.8946 50.2195 33.0449C49.8567 33.4939 49.5249 33.9853 49.2467 34.4992L56.6015 58.6206C56.7243 59.0259 57.0999 59.3026 57.5235 59.3026H89.6774C90.2097 59.3026 90.6417 58.872 90.6417 58.3397V48.6623C90.6417 48.13 90.2097 47.6994 89.6774 47.6994H61.1422Z" fill="white"/>
<path d="M49.2472 34.3255C48.1459 36.2725 47.5995 38.6996 47.5995 41.6195V58.1659C47.5995 58.701 47.1717 59.1288 46.6366 59.1288H5.94894C5.29663 59.1288 4.83634 58.509 5.02837 57.8878L9.04955 44.4321C11.3482 45.6195 13.9588 46.293 16.729 46.293C25.9715 46.293 33.4576 38.8055 33.4576 29.5644C33.4576 20.9107 26.9006 13.7988 18.4827 12.9206L22.141 0.684787C22.2596 0.27815 22.6323 0 23.0601 0H38.3979C38.8258 0 39.1999 0.27815 39.3284 0.684787L49.2444 34.324L49.2472 34.3255Z" fill="white"/>
<path d="M18.4836 12.9218L9.04912 44.4319C3.66825 41.6504 4.95911e-05 36.0351 4.95911e-05 29.5643C4.95911e-05 20.3218 7.48752 12.8357 16.7286 12.8357C17.316 12.8357 17.9047 12.8682 18.4822 12.9218H18.4836Z" fill="#EF9041"/>
<path d="M121.049 23.7761V19.2015H127.876V16.3254H121.049V12.0388H128.307V9.16406H121.049H120.569H117.719V26.6508H120.569H121.049H128.499V23.7761H121.049Z" fill="white"/>
<path d="M145.248 9.16406V23.8241H144.912L137.581 9.16406H132V26.6508H135.163V11.9907H135.499L142.83 26.6508H148.457V9.16406H145.248Z" fill="white"/>
<path d="M156.095 23.7761V19.2015H162.923V16.3254H156.095V12.0388H163.354V9.16406H156.095H155.616H152.766V26.6508H155.616H156.095H163.546V23.7761H156.095Z" fill="white"/>
<path d="M170.442 11.9442H173.891C174.514 11.9442 175.053 12.0755 175.508 12.3395C175.962 12.6035 176.314 12.9622 176.563 13.4182C176.81 13.8729 176.934 14.4037 176.934 15.0109C176.934 15.618 176.81 16.1489 176.563 16.6049C176.315 17.0596 175.964 17.4154 175.508 17.6709C175.053 17.9265 174.514 18.055 173.891 18.055H170.442V11.947V11.9442ZM181.701 26.6522L177.031 20.2435C177.076 20.2265 177.129 20.2138 177.172 20.1969C178.195 19.7888 178.99 19.1676 179.556 18.3289C180.122 17.4902 180.407 16.4327 180.407 15.1549V14.7708C180.407 13.4775 180.128 12.4115 179.569 11.5728C179.009 10.7341 178.215 10.1044 177.184 9.68083C176.155 9.25866 174.936 9.04688 173.531 9.04688H170.442H169.435H167.039V26.6537H170.442V20.8083H173.531C173.551 20.8083 173.568 20.8054 173.586 20.8054L177.699 26.6522H181.699H181.701Z" fill="white"/>
<path d="M201.181 17.7604H191.648V20.299H196.582V22.2164C196.221 22.6245 195.784 22.9845 195.252 23.281C194.382 23.7681 193.356 24.011 192.174 24.011C191.311 24.011 190.529 23.8726 189.826 23.5917C189.123 23.3121 188.524 22.9055 188.03 22.3703C187.535 21.8352 187.152 21.1843 186.881 20.4176C186.608 19.651 186.473 18.7883 186.473 17.831C186.473 16.9372 186.597 16.1225 186.844 15.3883C187.093 14.6541 187.447 14.0188 187.91 13.4836C188.373 12.9485 188.937 12.5376 189.6 12.2496C190.262 11.9616 190.994 11.8176 191.792 11.8176C192.622 11.8176 193.376 11.9616 194.055 12.2496C194.734 12.5376 195.297 12.9471 195.745 13.4836C196.191 14.0188 196.462 14.6612 196.558 15.4109H200.009C199.879 14.0851 199.457 12.916 198.738 11.9023C198.02 10.8885 197.069 10.0936 195.888 9.51753C194.704 8.94287 193.34 8.65625 191.792 8.65625C190.37 8.65625 189.112 8.90899 188.019 9.41022C186.925 9.91287 186.007 10.592 185.264 11.4462C184.52 12.3004 183.962 13.2549 183.587 14.3082C183.211 15.3629 183.023 16.4402 183.023 17.5415V18.0682C183.023 19.2175 183.22 20.3315 183.611 21.4088C184.002 22.4861 184.581 23.4533 185.347 24.3075C186.114 25.1617 187.069 25.8409 188.209 26.3435C189.352 26.8462 190.673 27.0975 192.174 27.0975C193.867 27.0975 195.359 26.7812 196.653 26.1515C197.948 25.5204 198.968 24.6379 199.72 23.5041V20.2934H201.181V17.7547V17.7604Z" fill="white"/>
<path d="M204.031 9.16406H207.433V26.6508H204.031V9.16406Z" fill="white"/>
<path d="M215.96 19.1295L218.321 12.0148H219.202L221.629 19.1295H215.96ZM224.196 26.6508H227.717L221.585 9.16406H216.004L210.062 26.6508H213.465L214.999 22.0282H222.619L224.196 26.6508Z" fill="white"/>
<path d="M243.121 23.5574C242.339 24.101 241.453 24.3721 240.463 24.3721C239.76 24.3721 239.152 24.245 238.643 23.988C238.132 23.7339 237.736 23.3696 237.457 22.898C237.177 22.4278 237.037 21.873 237.037 21.2333C237.037 20.4822 237.214 19.8158 237.564 19.2326C237.796 18.8472 238.067 18.5323 238.369 18.2768C238.637 18.5944 238.932 18.9319 239.265 19.2934L243.179 23.5094C243.16 23.5249 243.141 23.5433 243.121 23.5574ZM248.594 17.1613H249.902V14.6933H243.265V17.1613H245.67C245.635 18.7187 245.414 20.0247 244.989 21.054C244.953 21.143 244.909 21.2192 244.869 21.3054L241.228 17.4014C240.605 16.7152 240.151 16.1038 239.863 15.5687C239.575 15.0336 239.432 14.4716 239.432 13.88C239.432 13.1924 239.611 12.6615 239.971 12.2859C240.33 11.9118 241.013 11.724 242.019 11.724C242.322 11.724 242.709 11.7367 243.181 11.7593C243.651 11.7833 244.127 11.82 244.607 11.868C245.085 11.916 245.485 11.9555 245.804 11.988V9.20934C245.325 9.12886 244.771 9.06533 244.139 9.01732C243.508 8.96932 242.914 8.94531 242.355 8.94531C240.948 8.94531 239.803 9.13734 238.917 9.51997C238.03 9.90401 237.379 10.4504 236.964 11.1606C236.548 11.8708 236.341 12.7293 236.341 13.736C236.341 14.3756 236.433 14.9658 236.617 15.5094C236.703 15.7649 236.819 16.0276 236.958 16.2944C236.148 16.766 235.46 17.3731 234.915 18.1327C234.269 19.035 233.945 20.0614 233.945 21.2108V21.5454C233.945 22.5846 234.209 23.5263 234.736 24.3721C235.263 25.2192 236.005 25.8899 236.964 26.3841C237.921 26.8782 239.04 27.1267 240.317 27.1267C241.499 27.1267 242.593 26.8952 243.6 26.4321C244.123 26.192 244.608 25.8927 245.06 25.5383L246.091 26.6481H249.851L246.9 23.484C247.336 22.7949 247.7 22.0226 247.983 21.1515C248.361 19.9796 248.557 18.6453 248.591 17.1628L248.594 17.1613Z" fill="white"/>
<path d="M123.499 51.3099C122.001 51.3099 120.729 51.067 119.682 50.5841C118.638 50.0998 117.846 49.4334 117.308 48.582C116.768 47.732 116.5 46.7691 116.5 45.6918H119.753C119.753 46.145 119.877 46.5855 120.127 47.0134C120.377 47.4426 120.778 47.7899 121.333 48.0554C121.887 48.3208 122.609 48.4535 123.498 48.4535C124.325 48.4535 125.007 48.3363 125.546 48.102C126.084 47.8676 126.491 47.5612 126.763 47.1771C127.036 46.7945 127.173 46.3625 127.173 45.8768C127.173 45.2837 126.916 44.8051 126.4 44.438C125.887 44.0709 125.082 43.8408 123.99 43.7476L122.492 43.6078C120.854 43.4666 119.547 42.9555 118.571 42.0744C117.596 41.1934 117.109 40.0257 117.109 38.5743C117.109 37.4814 117.366 36.5425 117.881 35.7546C118.396 34.9668 119.118 34.3582 120.047 33.929C120.974 33.4984 122.063 33.2852 123.313 33.2852C124.607 33.2852 125.727 33.5125 126.672 33.9643C127.615 34.4175 128.342 35.0529 128.849 35.8718C129.357 36.6907 129.61 37.6565 129.61 38.7634H126.357C126.357 38.3116 126.248 37.8852 126.029 37.4871C125.81 37.0889 125.474 36.7656 125.022 36.5157C124.569 36.2657 124 36.1415 123.313 36.1415C122.657 36.1415 122.115 36.2544 121.686 36.4804C121.257 36.7077 120.933 37.0042 120.715 37.3699C120.496 37.7356 120.387 38.1394 120.387 38.5757C120.387 39.108 120.582 39.5711 120.973 39.9692C121.363 40.3674 121.98 40.5975 122.821 40.6597L124.295 40.7995C125.528 40.8926 126.601 41.151 127.513 41.5718C128.427 41.9925 129.14 42.563 129.655 43.2802C130.17 43.9989 130.427 44.8644 130.427 45.8782C130.427 46.9555 130.148 47.9029 129.584 48.7232C129.022 49.5421 128.223 50.1775 127.185 50.6307C126.148 51.0825 124.919 51.3099 123.499 51.3099Z" fill="white"/>
<path d="M141.475 48.2192C142.349 48.2192 143.137 48.0638 143.84 47.7518C144.541 47.4398 145.139 47.0063 145.63 46.4528C146.121 45.8979 146.497 45.2668 146.754 44.5566C147.011 43.8464 147.139 43.0938 147.139 42.2975C147.139 41.4546 147.007 40.6738 146.741 39.9565C146.476 39.2393 146.097 38.611 145.606 38.073C145.115 37.5351 144.522 37.1171 143.827 36.8206C143.132 36.5241 142.349 36.3759 141.475 36.3759C140.616 36.3759 139.837 36.5255 139.134 36.8206C138.432 37.1171 137.835 37.5351 137.343 38.073C136.852 38.611 136.478 39.2393 136.22 39.9565C135.961 40.6738 135.833 41.4546 135.833 42.2975C135.833 43.0938 135.961 43.8464 136.22 44.5566C136.476 45.2668 136.851 45.8993 137.343 46.4528C137.835 47.0063 138.431 47.4398 139.134 47.7518C139.837 48.0638 140.616 48.2192 141.475 48.2192ZM141.475 51.3085C139.93 51.3085 138.592 51.0388 137.461 50.5008C136.328 49.9615 135.392 49.2484 134.651 48.3589C133.91 47.4694 133.359 46.5135 133 45.4913C132.642 44.4705 132.461 43.4821 132.461 42.5305V42.0151C132.461 40.9703 132.649 39.9283 133.023 38.8905C133.397 37.8528 133.963 36.9124 134.72 36.0709C135.477 35.228 136.417 34.5531 137.541 34.0462C138.665 33.5393 139.975 33.2852 141.473 33.2852C142.971 33.2852 144.286 33.5379 145.418 34.0462C146.549 34.5545 147.494 35.2294 148.251 36.0709C149.007 36.9138 149.572 37.8542 149.948 38.8905C150.322 39.9283 150.51 40.9703 150.51 42.0151V42.5305C150.51 43.4821 150.326 44.4705 149.959 45.4913C149.593 46.5135 149.038 47.4694 148.297 48.3589C147.556 49.2484 146.62 49.9615 145.489 50.5008C144.358 51.0388 143.019 51.3085 141.475 51.3085Z" fill="white"/>
<path d="M157.019 47.9404V33.7773H153.695V50.8659H156.552H157.019H163.923V47.9404H157.019Z" fill="white"/>
<path d="M173.124 51.3093C171.533 51.3093 170.19 51.0086 169.097 50.4085C168.004 49.8084 167.178 48.9528 166.616 47.8444C166.054 46.7375 165.773 45.4413 165.773 43.9602V33.7773H169.097V44.148C169.097 44.9598 169.252 45.6743 169.566 46.2899C169.878 46.9069 170.334 47.3827 170.935 47.7187C171.536 48.0548 172.266 48.2214 173.124 48.2214C173.998 48.2214 174.731 48.0534 175.324 47.7187C175.917 47.3827 176.37 46.9111 176.682 46.3012C176.994 45.6926 177.149 44.9754 177.149 44.148V33.7773H180.473V43.9602C180.473 45.4427 180.196 46.7375 179.643 47.8444C179.088 48.9528 178.266 49.807 177.173 50.4085C176.081 51.0086 174.731 51.3093 173.124 51.3093Z" fill="white"/>
<path d="M196.882 44.612C196.694 45.7514 196.165 46.6367 195.291 47.2693C194.417 47.9004 193.34 48.2167 192.062 48.2167C191.188 48.2167 190.418 48.0684 189.756 47.7719C189.092 47.4754 188.535 47.0575 188.083 46.5195C187.63 45.9802 187.291 45.3533 187.064 44.6346C186.838 43.9173 186.725 43.1365 186.725 42.2936C186.725 41.4352 186.838 40.6473 187.064 39.9286C187.291 39.2114 187.623 38.5873 188.059 38.0564C188.495 37.5255 189.042 37.1118 189.697 36.8153C190.352 36.5188 191.093 36.3706 191.921 36.3706C192.748 36.3706 193.492 36.5117 194.156 36.7913C194.819 37.0723 195.366 37.4789 195.793 38.0084C196.223 38.5407 196.492 39.1944 196.601 39.9752H199.973C199.832 38.6339 199.418 37.4634 198.732 36.4652C198.044 35.4669 197.125 34.6861 195.97 34.1242C194.814 33.5622 193.464 33.2812 191.921 33.2812C190.438 33.2812 189.155 33.534 188.069 34.0423C186.984 34.5506 186.095 35.2255 185.4 36.067C184.707 36.9099 184.19 37.846 183.854 38.8767C183.52 39.906 183.352 40.9523 183.352 42.0126V42.528C183.352 43.4952 183.515 44.4906 183.843 45.5128C184.17 46.535 184.683 47.4867 185.376 48.3677C186.071 49.2502 186.968 49.959 188.069 50.4983C188.9 50.905 189.865 51.1563 190.959 51.2565V53.6469H192.107C192.512 53.6469 192.809 53.7006 192.996 53.8107C193.184 53.9194 193.277 54.0677 193.277 54.2555C193.277 54.4899 193.156 54.6692 192.915 54.7934C192.672 54.9191 192.31 54.9812 191.826 54.9812C191.5 54.9812 191.175 54.9544 190.855 54.8993C190.535 54.8457 190.257 54.7779 190.023 54.7002V56.8549C190.242 56.917 190.523 56.9749 190.866 57.0299C191.209 57.0836 191.559 57.1118 191.919 57.1118C193.073 57.1118 193.959 56.8393 194.575 56.2929C195.192 55.7465 195.501 55.0829 195.501 54.3035C195.501 53.5072 195.192 52.9113 194.575 52.5132C194.166 52.2491 193.657 52.0811 193.066 51.9907V51.258C194.264 51.1549 195.329 50.8725 196.25 50.3939C197.42 49.7853 198.342 48.9735 199.013 47.9597C199.683 46.9459 200.097 45.8291 200.254 44.612H196.884H196.882Z" fill="white"/>
<path d="M213.128 32.2779C212.661 32.2779 212.263 32.2158 211.934 32.0916C211.606 31.9659 211.306 31.8261 211.033 31.6694C210.759 31.5141 210.482 31.3771 210.203 31.2599C209.922 31.1428 209.594 31.0835 209.219 31.0835C208.751 31.0835 208.338 31.1696 207.978 31.3404C207.618 31.5127 206.816 31.7386 206.597 32.0196V29.8424C206.845 29.5148 207.193 29.2366 207.639 29.0107C208.084 28.7848 208.617 28.6719 209.241 28.6719C209.709 28.6719 210.107 28.734 210.436 28.8597C210.763 28.9853 211.064 29.1251 211.338 29.2818C211.611 29.4386 211.887 29.5741 212.168 29.6913C212.449 29.8071 212.777 29.8664 213.151 29.8664C213.62 29.8664 214.032 29.7774 214.392 29.5967C214.751 29.4188 215.554 29.1957 215.774 28.9303V31.106C215.524 31.4336 215.177 31.7118 214.732 31.9377C214.288 32.165 213.754 32.2765 213.128 32.2765V32.2779ZM211.068 48.2186C211.942 48.2186 212.73 48.0619 213.433 47.7513C214.135 47.4393 214.732 47.0058 215.224 46.4523C215.715 45.8988 216.089 45.2663 216.348 44.5561C216.605 43.8459 216.733 43.0933 216.733 42.297C216.733 41.4541 216.6 40.6733 216.335 39.956C216.069 39.2388 215.691 38.6105 215.2 38.0711C214.708 37.5332 214.114 37.1166 213.421 36.8187C212.726 36.5222 211.942 36.374 211.068 36.374C210.21 36.374 209.431 36.5236 208.727 36.8187C208.026 37.1152 207.43 37.5332 206.937 38.0711C206.446 38.6105 206.07 39.2374 205.813 39.956C205.555 40.6733 205.426 41.4541 205.426 42.297C205.426 43.0933 205.555 43.8459 205.813 44.5561C206.07 45.2663 206.444 45.8988 206.937 46.4523C207.428 47.0058 208.026 47.4393 208.727 47.7513C209.431 48.0633 210.21 48.2186 211.068 48.2186ZM211.068 51.308C209.524 51.308 208.185 51.0383 207.054 50.5003C205.922 49.961 204.986 49.2479 204.245 48.3584C203.503 47.4689 202.953 46.513 202.594 45.4908C202.235 44.4686 202.055 43.4816 202.055 42.53V42.0146C202.055 40.9698 202.242 39.9278 202.617 38.89C202.991 37.8522 203.557 36.9119 204.314 36.069C205.071 35.2261 206.011 34.5526 207.135 34.0443C208.259 33.5374 209.569 33.2847 211.067 33.2847C212.565 33.2847 213.88 33.5374 215.012 34.0443C216.143 34.5526 217.088 35.2275 217.844 36.069C218.601 36.9119 219.167 37.8522 219.541 38.89C219.916 39.9278 220.103 40.9698 220.103 42.0146V42.53C220.103 43.4816 219.92 44.4686 219.553 45.4908C219.186 46.513 218.632 47.4689 217.891 48.3584C217.15 49.2479 216.214 49.961 215.083 50.5003C213.95 51.0383 212.613 51.308 211.068 51.308Z" fill="white"/>
<path d="M226.544 48.0562V43.586H233.215V40.7763H226.544V36.5857H233.637V33.7773H226.544H226.075H223.289V50.8659H226.075H226.544H233.823V48.0562H226.544Z" fill="white"/>
<path d="M242.905 51.3099C241.407 51.3099 240.135 51.067 239.089 50.5841C238.044 50.0998 237.252 49.4334 236.714 48.582C236.175 47.732 235.906 46.7691 235.906 45.6918H239.159C239.159 46.145 239.284 46.5855 239.533 47.0134C239.783 47.4426 240.184 47.7899 240.739 48.0554C241.293 48.3208 242.014 48.4535 242.904 48.4535C243.731 48.4535 244.415 48.3363 244.952 48.102C245.49 47.8676 245.896 47.5612 246.17 47.1771C246.442 46.7945 246.579 46.3625 246.579 45.8768C246.579 45.2837 246.322 44.8051 245.807 44.438C245.293 44.0709 244.488 43.8408 243.397 43.7476L241.897 43.6078C240.259 43.4666 238.952 42.9555 237.976 42.0744C237 41.1934 236.513 40.0257 236.513 38.5743C236.513 37.4814 236.77 36.5425 237.286 35.7546C237.801 34.9668 238.523 34.3582 239.452 33.929C240.379 33.4984 241.468 33.2852 242.717 33.2852C244.012 33.2852 245.132 33.5125 246.076 33.9643C247.021 34.4175 247.747 35.0529 248.254 35.8718C248.76 36.6907 249.015 37.6565 249.015 38.7634H245.762C245.762 38.3116 245.653 37.8852 245.434 37.4871C245.215 37.0889 244.88 36.7656 244.427 36.5157C243.974 36.2657 243.405 36.1415 242.719 36.1415C242.064 36.1415 241.521 36.2544 241.092 36.4804C240.663 36.7077 240.34 37.0042 240.121 37.3699C239.902 37.7356 239.793 38.1394 239.793 38.5757C239.793 39.108 239.988 39.5711 240.379 39.9692C240.769 40.3674 241.386 40.5975 242.227 40.6597L243.703 40.7995C244.936 40.8926 246.009 41.151 246.921 41.5718C247.834 41.9925 248.547 42.563 249.063 43.2802C249.578 43.9989 249.835 44.8644 249.835 45.8782C249.835 46.9555 249.555 47.9029 248.992 48.7232C248.43 49.5421 247.631 50.1775 246.593 50.6307C245.555 51.0825 244.326 51.3099 242.907 51.3099H242.905Z" fill="white"/>
</svg>
